# xmcd
#
# Track frame offsets: 
#        150
#        13770
#        25222
#        37603
#        48562
#        65452
#        83186
#        101566
#        112479
#        126878
#        139283
#        153285
#
# Disc length: 2262 seconds
#
# Revision: 0
# Processed by: cddbd v1.5.1PL2 Copyright (c) Steve Scherf et al.
# Submitted via: ExactAudioCopy v0.95a4
#
DISCID=a008d40c
DTITLE=Circle The Wagons - Cumberland Gap
DYEAR=2004
DGENRE=Bluegrass
TTITLE0=Roving Gambler
TTITLE1=Ribbon Of Darkness
TTITLE2=Old Home Place
TTITLE3=Hey Doll Baby
TTITLE4=Louis Collins
TTITLE5=Hobo Song
TTITLE6=Big Iron
TTITLE7=Arms Full Of Empty
TTITLE8=Thanks A Lot
TTITLE9=Flint Hill Special
TTITLE10=I Won't Back Down
TTITLE11=Outlaw Blues
EXTD=
EXTT0=
EXTT1=
EXTT2=
EXTT3=
EXTT4=
EXTT5=
EXTT6=
EXTT7=
EXTT8=
EXTT9=
EXTT10=
EXTT11=
PLAYORDER=
